<?xml version="1.0" encoding="UTF-8" standalone="no"?>
<!DOCTYPE svg PUBLIC "-//W3C//DTD SVG 1.1//EN"
 "http://www.w3.org/Graphics/SVG/1.1/DTD/svg11.dtd">
<!-- Generated by graphviz version 14.1.2 (20260124.0452)
 -->
<!-- Title: CDF_Architecture Pages: 1 -->
<svg width="1334pt" height="295pt"
 viewBox="0.00 0.00 1334.00 295.00" xmlns="http://www.w3.org/2000/svg" xmlns:xlink="http://www.w3.org/1999/xlink">
<g id="graph0" class="graph" transform="scale(1 1) rotate(0) translate(4 290.75)">
<title>CDF_Architecture</title>
<polygon fill="#ffffff" stroke="none" points="-4,4 -4,-290.75 1330,-290.75 1330,4 -4,4"/>
<text xml:space="preserve" text-anchor="middle" x="663" y="-267.55" font-family="Arial" font-size="16.00">ArcGIS Custom Data Feed — Databricks + Lakebase Architecture</text>
<g id="clust1" class="cluster">
<title>cluster_clients</title>
<path fill="#e8f0fe" stroke="#4285f4" d="M20,-8C20,-8 111.25,-8 111.25,-8 117.25,-8 123.25,-14 123.25,-20 123.25,-20 123.25,-228 123.25,-228 123.25,-234 117.25,-240 111.25,-240 111.25,-240 20,-240 20,-240 14,-240 8,-234 8,-228 8,-228 8,-20 8,-20 8,-14 14,-8 20,-8"/>
<text xml:space="preserve" text-anchor="middle" x="65.62" y="-225.55" font-family="Arial" font-size="11.00" fill="#1a73e8">ArcGIS Clients</text>
</g>
<g id="clust2" class="cluster">
<title>cluster_server</title>
<path fill="#e6f4ea" stroke="#34a853" d="M220.5,-62C220.5,-62 655,-62 655,-62 661,-62 667,-68 667,-74 667,-74 667,-152 667,-152 667,-158 661,-164 655,-164 655,-164 220.5,-164 220.5,-164 214.5,-164 208.5,-158 208.5,-152 208.5,-152 208.5,-74 208.5,-74 208.5,-68 214.5,-62 220.5,-62"/>
<text xml:space="preserve" text-anchor="middle" x="437.75" y="-149.55" font-family="Arial" font-size="11.00" fill="#137333">ArcGIS Server (AWS EC2)</text>
</g>
<g id="clust3" class="cluster">
<title>cluster_databricks</title>
<path fill="#fff8e1" stroke="#f9ab00" d="M779.25,-150C779.25,-150 1306,-150 1306,-150 1312,-150 1318,-156 1318,-162 1318,-162 1318,-240 1318,-240 1318,-246 1312,-252 1306,-252 1306,-252 779.25,-252 779.25,-252 773.25,-252 767.25,-246 767.25,-240 767.25,-240 767.25,-162 767.25,-162 767.25,-156 773.25,-150 779.25,-150"/>
<text xml:space="preserve" text-anchor="middle" x="1042.62" y="-237.55" font-family="Arial" font-size="11.00" fill="#e37400">Databricks Workspace</text>
</g>
<!-- pro -->
<g id="node1" class="node">
<title>pro</title>
<path fill="#c6dafc" stroke="#4285f4" d="M86.75,-210C86.75,-210 44.5,-210 44.5,-210 38.5,-210 32.5,-204 32.5,-198 32.5,-198 32.5,-186 32.5,-186 32.5,-180 38.5,-174 44.5,-174 44.5,-174 86.75,-174 86.75,-174 92.75,-174 98.75,-180 98.75,-186 98.75,-186 98.75,-198 98.75,-198 98.75,-204 92.75,-210 86.75,-210"/>
<text xml:space="preserve" text-anchor="middle" x="65.62" y="-194.5" font-family="Arial" font-size="10.00" fill="#1a237e">ArcGIS Pro</text>
<text xml:space="preserve" text-anchor="middle" x="65.62" y="-182.5" font-family="Arial" font-size="10.00" fill="#1a237e">(Desktop)</text>
</g>
<!-- restapi -->
<g id="node4" class="node">
<title>restapi</title>
<path fill="#b7e1cd" stroke="#34a853" d="M266.25,-131C266.25,-131 228.5,-131 228.5,-131 222.5,-131 216.5,-125 216.5,-119 216.5,-119 216.5,-107 216.5,-107 216.5,-101 222.5,-95 228.5,-95 228.5,-95 266.25,-95 266.25,-95 272.25,-95 278.25,-101 278.25,-107 278.25,-107 278.25,-119 278.25,-119 278.25,-125 272.25,-131 266.25,-131"/>
<text xml:space="preserve" text-anchor="middle" x="247.38" y="-115.5" font-family="Arial" font-size="10.00" fill="#0d652d">REST API</text>
<text xml:space="preserve" text-anchor="middle" x="247.38" y="-103.5" font-family="Arial" font-size="10.00" fill="#0d652d">(HTTPS)</text>
</g>
<!-- pro&#45;&gt;restapi -->
<g id="edge1" class="edge">
<title>pro&#45;&gt;restapi</title>
<path fill="none" stroke="#4285f4" stroke-width="1.5" d="M99.18,-177.69C128.95,-164.61 173.13,-145.19 205.32,-131.04"/>
<polygon fill="#4285f4" stroke="#4285f4" stroke-width="1.5" points="206.33,-134.42 214.08,-127.19 203.52,-128.01 206.33,-134.42"/>
<text xml:space="preserve" text-anchor="middle" x="165.88" y="-154.45" font-family="Arial" font-size="9.00">HTTPS</text>
</g>
<!-- webapp -->
<g id="node2" class="node">
<title>webapp</title>
<path fill="#c6dafc" stroke="#4285f4" d="M99.5,-131C99.5,-131 31.75,-131 31.75,-131 25.75,-131 19.75,-125 19.75,-119 19.75,-119 19.75,-107 19.75,-107 19.75,-101 25.75,-95 31.75,-95 31.75,-95 99.5,-95 99.5,-95 105.5,-95 111.5,-101 111.5,-107 111.5,-107 111.5,-119 111.5,-119 111.5,-125 105.5,-131 99.5,-131"/>
<text xml:space="preserve" text-anchor="middle" x="65.62" y="-115.5" font-family="Arial" font-size="10.00" fill="#1a237e">ArcGIS Web App</text>
<text xml:space="preserve" text-anchor="middle" x="65.62" y="-103.5" font-family="Arial" font-size="10.00" fill="#1a237e">JS API (Browser)</text>
</g>
<!-- webapp&#45;&gt;restapi -->
<g id="edge2" class="edge">
<title>webapp&#45;&gt;restapi</title>
<path fill="none" stroke="#4285f4" stroke-width="1.5" d="M111.98,-113C140.21,-113 176.28,-113 203.94,-113"/>
<polygon fill="#4285f4" stroke="#4285f4" stroke-width="1.5" points="203.73,-116.5 213.73,-113 203.73,-109.5 203.73,-116.5"/>
<text xml:space="preserve" text-anchor="middle" x="165.88" y="-114.95" font-family="Arial" font-size="9.00">HTTPS</text>
</g>
<!-- fieldmaps -->
<g id="node3" class="node">
<title>fieldmaps</title>
<path fill="#c6dafc" stroke="#4285f4" d="M103.25,-52C103.25,-52 28,-52 28,-52 22,-52 16,-46 16,-40 16,-40 16,-28 16,-28 16,-22 22,-16 28,-16 28,-16 103.25,-16 103.25,-16 109.25,-16 115.25,-22 115.25,-28 115.25,-28 115.25,-40 115.25,-40 115.25,-46 109.25,-52 103.25,-52"/>
<text xml:space="preserve" text-anchor="middle" x="65.62" y="-36.5" font-family="Arial" font-size="10.00" fill="#1a237e">ArcGIS Field Maps</text>
<text xml:space="preserve" text-anchor="middle" x="65.62" y="-24.5" font-family="Arial" font-size="10.00" fill="#1a237e">(Mobile)</text>
</g>
<!-- fieldmaps&#45;&gt;restapi -->
<g id="edge3" class="edge">
<title>fieldmaps&#45;&gt;restapi</title>
<path fill="none" stroke="#4285f4" stroke-width="1.5" d="M108.32,-52.32C137.43,-65.12 176.12,-82.12 205.14,-94.88"/>
<polygon fill="#4285f4" stroke="#4285f4" stroke-width="1.5" points="203.5,-97.98 214.06,-98.8 206.31,-91.57 203.5,-97.98"/>
<text xml:space="preserve" text-anchor="middle" x="165.88" y="-84.85" font-family="Arial" font-size="9.00">HTTPS</text>
</g>
<!-- cdfruntime -->
<g id="node5" class="node">
<title>cdfruntime</title>
<path fill="#b7e1cd" stroke="#34a853" d="M458.5,-131C458.5,-131 405,-131 405,-131 399,-131 393,-125 393,-119 393,-119 393,-107 393,-107 393,-101 399,-95 405,-95 405,-95 458.5,-95 458.5,-95 464.5,-95 470.5,-101 470.5,-107 470.5,-107 470.5,-119 470.5,-119 470.5,-125 464.5,-131 458.5,-131"/>
<text xml:space="preserve" text-anchor="middle" x="431.75" y="-115.5" font-family="Arial" font-size="10.00" fill="#0d652d">CDF Runtime</text>
<text xml:space="preserve" text-anchor="middle" x="431.75" y="-103.5" font-family="Arial" font-size="10.00" fill="#0d652d">FeatureServer</text>
</g>
<!-- restapi&#45;&gt;cdfruntime -->
<g id="edge4" class="edge">
<title>restapi&#45;&gt;cdfruntime</title>
<path fill="none" stroke="#34a853" stroke-width="1.5" d="M278.49,-113C306.21,-113 347.87,-113 380.6,-113"/>
<polygon fill="#34a853" stroke="#34a853" stroke-width="1.5" points="380.4,-116.5 390.4,-113 380.4,-109.5 380.4,-116.5"/>
<text xml:space="preserve" text-anchor="middle" x="335.62" y="-125.45" font-family="Arial" font-size="9.00">query/</text>
<text xml:space="preserve" text-anchor="middle" x="335.62" y="-114.95" font-family="Arial" font-size="9.00">applyEdits</text>
</g>
<!-- provider -->
<g id="node6" class="node">
<title>provider</title>
<path fill="#a8dab5" stroke="#34a853" d="M647,-131C647,-131 595,-131 595,-131 589,-131 583,-125 583,-119 583,-119 583,-107 583,-107 583,-101 589,-95 595,-95 595,-95 647,-95 647,-95 653,-95 659,-101 659,-107 659,-107 659,-119 659,-119 659,-125 653,-131 647,-131"/>
<text xml:space="preserve" text-anchor="middle" x="621" y="-115.5" font-family="Arial" font-size="10.00" fill="#0d652d">CDF Provider</text>
<text xml:space="preserve" text-anchor="middle" x="621" y="-103.5" font-family="Arial" font-size="10.00" fill="#0d652d">model.js</text>
</g>
<!-- cdfruntime&#45;&gt;provider -->
<g id="edge5" class="edge">
<title>cdfruntime&#45;&gt;provider</title>
<path fill="none" stroke="#34a853" stroke-width="1.5" d="M470.64,-113C499.51,-113 539.5,-113 570.83,-113"/>
<polygon fill="#34a853" stroke="#34a853" stroke-width="1.5" points="570.53,-116.5 580.53,-113 570.53,-109.5 570.53,-116.5"/>
<text xml:space="preserve" text-anchor="middle" x="526.75" y="-125.45" font-family="Arial" font-size="9.00">getData()</text>
<text xml:space="preserve" text-anchor="middle" x="526.75" y="-114.95" font-family="Arial" font-size="9.00">editData()</text>
</g>
<!-- sqlwarehouse -->
<g id="node7" class="node">
<title>sqlwarehouse</title>
<path fill="#fff2cc" stroke="#f9ab00" d="M849,-217C849,-217 787.25,-217 787.25,-217 781.25,-217 775.25,-211 775.25,-205 775.25,-205 775.25,-193 775.25,-193 775.25,-187 781.25,-181 787.25,-181 787.25,-181 849,-181 849,-181 855,-181 861,-187 861,-193 861,-193 861,-205 861,-205 861,-211 855,-217 849,-217"/>
<text xml:space="preserve" text-anchor="middle" x="818.12" y="-201.5" font-family="Arial" font-size="10.00" fill="#7f6003">Databricks SQL</text>
<text xml:space="preserve" text-anchor="middle" x="818.12" y="-189.5" font-family="Arial" font-size="10.00" fill="#7f6003">Warehouse</text>
</g>
<!-- provider&#45;&gt;sqlwarehouse -->
<g id="edge6" class="edge">
<title>provider&#45;&gt;sqlwarehouse</title>
<path fill="none" stroke="#f9ab00" stroke-width="2" d="M659.16,-129.38C688.7,-142.4 730.43,-160.79 763.58,-175.4"/>
<polygon fill="#f9ab00" stroke="#f9ab00" stroke-width="2" points="762.03,-178.54 772.6,-179.37 764.86,-172.14 762.03,-178.54"/>
<text xml:space="preserve" text-anchor="middle" x="717.12" y="-186.65" font-family="Arial" font-size="9.00">getData()</text>
<text xml:space="preserve" text-anchor="middle" x="717.12" y="-176.15" font-family="Arial" font-size="9.00">Read&#45;Only</text>
<text xml:space="preserve" text-anchor="middle" x="717.12" y="-165.65" font-family="Arial" font-size="9.00">50K+ rows</text>
</g>
<!-- lakebase -->
<g id="node9" class="node">
<title>lakebase</title>
<path fill="#ffcdd2" stroke="#d32f2f" d="M1298,-202C1298,-202 1203.25,-202 1203.25,-202 1197.25,-202 1191.25,-196 1191.25,-190 1191.25,-190 1191.25,-170 1191.25,-170 1191.25,-164 1197.25,-158 1203.25,-158 1203.25,-158 1298,-158 1298,-158 1304,-158 1310,-164 1310,-170 1310,-170 1310,-190 1310,-190 1310,-196 1304,-202 1298,-202"/>
<text xml:space="preserve" text-anchor="middle" x="1250.62" y="-188.5" font-family="Arial" font-size="10.00" fill="#b71c1c">Lakebase</text>
<text xml:space="preserve" text-anchor="middle" x="1250.62" y="-176.5" font-family="Arial" font-size="10.00" fill="#b71c1c">PostgreSQL + PostGIS</text>
<text xml:space="preserve" text-anchor="middle" x="1250.62" y="-164.5" font-family="Arial" font-size="10.00" fill="#b71c1c">14&#45;16ms latency</text>
</g>
<!-- provider&#45;&gt;lakebase -->
<g id="edge8" class="edge">
<title>provider&#45;&gt;lakebase</title>
<path fill="none" stroke="#d32f2f" stroke-width="2" d="M659.46,-116.52C735.08,-123.67 911.38,-140.63 1059.25,-157 1098.59,-161.36 1142.46,-166.63 1178.15,-171.02"/>
<polygon fill="#d32f2f" stroke="#d32f2f" stroke-width="2" points="1177.56,-174.48 1187.91,-172.23 1178.41,-167.53 1177.56,-174.48"/>
<text xml:space="preserve" text-anchor="middle" x="922.12" y="-157.11" font-family="Arial" font-size="9.00">getData()</text>
<text xml:space="preserve" text-anchor="middle" x="922.12" y="-146.61" font-family="Arial" font-size="9.00">Read</text>
</g>
<!-- provider&#45;&gt;lakebase -->
<g id="edge9" class="edge">
<title>provider&#45;&gt;lakebase</title>
<path fill="none" stroke="#d32f2f" stroke-width="2.5" stroke-dasharray="5,2" d="M659.13,-111.21C670.62,-110.73 683.33,-110.27 695,-110 807.08,-107.42 835.69,-97.85 947.25,-109 1041.09,-118.38 1063.84,-127.79 1155.25,-151 1162.61,-152.87 1170.25,-154.96 1177.85,-157.14"/>
<polygon fill="#d32f2f" stroke="#d32f2f" stroke-width="2.5" points="1176.77,-160.47 1187.35,-159.93 1178.74,-153.75 1176.77,-160.47"/>
<text xml:space="preserve" text-anchor="middle" x="922.12" y="-121.45" font-family="Arial" font-size="9.00">editData()</text>
<text xml:space="preserve" text-anchor="middle" x="922.12" y="-110.95" font-family="Arial" font-size="9.00">Write (NEW)</text>
</g>
<!-- deltalake -->
<g id="node8" class="node">
<title>deltalake</title>
<path fill="#ffe082" stroke="#f9ab00" d="M1059.25,-218C1059.25,-220.21 1042.22,-222 1021.25,-222 1000.28,-222 983.25,-220.21 983.25,-218 983.25,-218 983.25,-182 983.25,-182 983.25,-179.79 1000.28,-178 1021.25,-178 1042.22,-178 1059.25,-179.79 1059.25,-182 1059.25,-182 1059.25,-218 1059.25,-218"/>
<path fill="none" stroke="#f9ab00" d="M1059.25,-218C1059.25,-215.79 1042.22,-214 1021.25,-214 1000.28,-214 983.25,-215.79 983.25,-218"/>
<text xml:space="preserve" text-anchor="middle" x="1021.25" y="-202.5" font-family="Arial" font-size="10.00" fill="#7f6003">Delta Lake</text>
<text xml:space="preserve" text-anchor="middle" x="1021.25" y="-190.5" font-family="Arial" font-size="10.00" fill="#7f6003">Unity Catalog</text>
</g>
<!-- sqlwarehouse&#45;&gt;deltalake -->
<g id="edge7" class="edge">
<title>sqlwarehouse&#45;&gt;deltalake</title>
<path fill="none" stroke="#f9ab00" stroke-width="2" d="M861.29,-199.21C893.01,-199.37 936.61,-199.58 970.12,-199.75"/>
<polygon fill="#f9ab00" stroke="#f9ab00" stroke-width="2" points="969.84,-203.25 979.86,-199.8 969.87,-196.25 969.84,-203.25"/>
<text xml:space="preserve" text-anchor="middle" x="922.12" y="-201.57" font-family="Arial" font-size="9.00">SQL</text>
</g>
<!-- deltalake&#45;&gt;lakebase -->
<g id="edge10" class="edge">
<title>deltalake&#45;&gt;lakebase</title>
<path fill="none" stroke="#9e9e9e" stroke-width="1.5" stroke-dasharray="5,2" d="M1071.41,-195.68C1102.81,-192.91 1144.03,-189.29 1178.91,-186.22"/>
<polygon fill="#9e9e9e" stroke="#9e9e9e" stroke-width="1.5" points="1071.46,-192.16 1061.8,-196.52 1072.07,-199.13 1071.46,-192.16"/>
<polygon fill="#9e9e9e" stroke="#9e9e9e" stroke-width="1.5" points="1179.04,-189.72 1188.7,-185.36 1178.43,-182.75 1179.04,-189.72"/>
<text xml:space="preserve" text-anchor="middle" x="1125.25" y="-205.98" font-family="Arial" font-size="9.00">Synced Tables</text>
<text xml:space="preserve" text-anchor="middle" x="1125.25" y="-195.48" font-family="Arial" font-size="9.00">(auto&#45;sync)</text>
</g>
</g>
</svg>
